<svg width="21" height="20" viewBox="0 0 21 20" fill="none" xmlns="http://www.w3.org/2000/svg">
<g clip-path="url(#clip0)">
<path d="M11.5549 9.99802L20.4861 1.06365C20.7299 0.819897 20.7299 0.423022 20.4861 0.179272C20.2424 -0.0644775 19.8455 -0.0644775 19.6018 0.179272L10.6705 9.11365L1.73613 0.182397C1.49238 -0.0613525 1.09551 -0.0613525 0.851758 0.182397C0.608008 0.426147 0.608008 0.823022 0.851758 1.06677L9.78613 9.99802L0.854883 18.9324C0.611133 19.1761 0.611133 19.573 0.854883 19.8168C0.976758 19.9355 1.13613 19.998 1.29551 19.998C1.45488 19.998 1.61426 19.9386 1.73613 19.8136L10.6705 10.8824L19.6049 19.8168C19.7268 19.9355 19.8861 19.998 20.0455 19.998C20.2049 19.998 20.3643 19.9386 20.4861 19.8136C20.7299 19.5699 20.7299 19.173 20.4861 18.9293L11.5549 9.99802Z" fill="#979191"/>
</g>
<defs>
<clipPath id="clip0">
<rect width="20" height="20" fill="white" transform="translate(0.672363)"/>
</clipPath>
</defs>
</svg>
