<svg width="13" height="13" viewBox="0 0 13 13" fill="none" xmlns="http://www.w3.org/2000/svg">
<path d="M9.45635 8.69173C11.3145 6.41085 10.9726 3.05518 8.69173 1.197C6.41085 -0.661172 3.05518 -0.319256 1.197 1.96162C-0.661172 4.2425 -0.319256 7.59818 1.96162 9.45635C3.92078 11.052 6.73257 11.052 8.69173 9.45635L12.0748 12.8394C12.2855 13.0515 12.6274 13.053 12.8394 12.8423C13.0515 12.6317 13.053 12.2898 12.8423 12.0777C12.8409 12.0763 12.8409 12.0763 12.8394 12.0748L9.45635 8.69173ZM5.33317 9.57177C2.99314 9.57177 1.09601 7.67464 1.09601 5.33317C1.09601 2.9917 2.99314 1.09601 5.33317 1.09601C7.6732 1.09601 9.57177 2.99314 9.57177 5.33461C9.56888 7.6732 7.6732 9.56888 5.33317 9.57177Z" fill="#636363"/>
</svg>
